# MagicaVoxel @ Ephtracy

# group
o 

# material
mtllib Pistol.mtl
usemtl palette

# normals
vn -1 0 0
vn 1 0 0
vn 0 0 1
vn 0 0 -1
vn 0 -1 0
vn 0 1 0

# texcoords
vt 0.908203 0.5
vt 0.912109 0.5
vt 0.916016 0.5
vt 0.939453 0.5
vt 0.974609 0.5

# verts
v -0.15 -0.75 -0.55
v -0.15 -0.75 -0.65
v -0.15 -0.65 -0.45
v -0.15 -0.65 -0.55
v -0.15 -0.65 -0.65
v -0.15 -0.65 -0.75
v -0.15 -0.55 -0.35
v -0.15 -0.55 -0.45
v -0.15 -0.55 -0.55
v -0.15 -0.55 -0.65
v -0.15 -0.55 -0.75
v -0.15 -0.45 -0.25
v -0.15 -0.45 -0.35
v -0.15 -0.45 -0.45
v -0.15 -0.35 0.65
v -0.15 -0.35 0.35
v -0.15 -0.35 -0.05
v -0.15 -0.35 -0.25
v -0.15 -0.35 -0.35
v -0.15 -0.35 -0.45
v -0.15 -0.35 -0.55
v -0.15 -0.35 -0.65
v -0.15 -0.25 0.65
v -0.15 -0.25 0.35
v -0.15 -0.25 -0.05
v -0.15 -0.25 -0.15
v -0.15 -0.25 -0.35
v -0.15 -0.25 -0.45
v -0.15 -0.25 -0.55
v -0.15 -0.15 0.65
v -0.15 -0.15 0.55
v -0.15 -0.15 0.45
v -0.15 -0.15 0.35
v -0.15 -0.15 0.25
v -0.15 -0.15 0.15
v -0.15 -0.15 0.05
v -0.15 -0.15 -0.05
v -0.15 -0.15 -0.15
v -0.15 -0.15 -0.25
v -0.15 -0.15 -0.35
v -0.15 -0.15 -0.45
v -0.15 -0.05 0.55
v -0.15 -0.05 0.45
v -0.15 -0.05 0.35
v -0.15 -0.05 0.25
v -0.15 -0.05 0.15
v -0.15 -0.05 0.05
v -0.15 -0.05 -0.05
v -0.15 -0.05 -0.25
v -0.15 0.05 -0.25
v -0.15 0.05 -0.35
v -0.05 -0.75 -0.35
v -0.05 -0.75 -0.55
v -0.05 -0.75 -0.65
v -0.05 -0.75 -0.75
v -0.05 -0.65 -0.45
v -0.05 -0.65 -0.55
v -0.05 -0.65 -0.65
v -0.05 -0.65 -0.75
v -0.05 -0.55 -0.05
v -0.05 -0.55 -0.25
v -0.05 -0.55 -0.35
v -0.05 -0.55 -0.45
v -0.05 -0.45 0.55
v -0.05 -0.45 0.25
v -0.05 -0.45 0.05
v -0.05 -0.45 -0.05
v -0.05 -0.45 -0.25
v -0.05 -0.45 -0.35
v -0.05 -0.35 0.55
v -0.05 -0.35 0.35
v -0.05 -0.35 0.25
v -0.05 -0.35 0.05
v -0.05 -0.35 -0.05
v -0.05 -0.25 0.35
v -0.05 -0.25 0.25
v -0.05 -0.25 -0.05
v -0.05 -0.15 0.65
v -0.05 -0.15 0.55
v -0.05 -0.15 0.45
v -0.05 -0.15 0.35
v -0.05 -0.15 0.25
v -0.05 -0.15 0.15
v -0.05 -0.15 0.05
v -0.05 -0.15 -0.05
v -0.05 -0.05 0.65
v -0.05 -0.05 0.55
v -0.05 -0.05 0.45
v -0.05 -0.05 0.35
v -0.05 -0.05 0.25
v -0.05 -0.05 0.15
v -0.05 -0.05 0.05
v -0.05 -0.05 -0.05
v 0.05 -0.35 0.55
v 0.05 -0.35 0.35
v 0.05 -0.35 -0.05
v 0.05 -0.35 -0.25
v 0.05 -0.25 0.65
v 0.05 -0.25 0.55
v 0.05 -0.25 0.45
v 0.05 -0.25 0.35
v 0.05 -0.25 0.25
v 0.05 -0.25 -0.05
v 0.05 -0.25 -0.15
v 0.05 -0.15 0.65
v 0.05 -0.15 0.55
v 0.05 -0.15 0.45
v 0.05 -0.15 -0.05
v 0.05 -0.15 -0.15
v 0.05 -0.15 -0.25
v 0.05 -0.05 -0.25
v 0.05 -0.05 -0.35
v 0.05 0.05 -0.25
v 0.05 0.05 -0.35
v -0.05 -0.35 0.55
v -0.05 -0.35 0.35
v -0.05 -0.35 -0.05
v -0.05 -0.35 -0.25
v -0.05 -0.25 0.65
v -0.05 -0.25 0.55
v -0.05 -0.25 0.45
v -0.05 -0.25 0.35
v -0.05 -0.25 0.25
v -0.05 -0.25 -0.05
v -0.05 -0.25 -0.15
v -0.05 -0.15 0.65
v -0.05 -0.15 0.55
v -0.05 -0.15 0.45
v -0.05 -0.15 -0.05
v -0.05 -0.15 -0.15
v -0.05 -0.15 -0.25
v -0.05 -0.05 -0.25
v -0.05 -0.05 -0.35
v -0.05 0.05 -0.25
v -0.05 0.05 -0.35
v 0.05 -0.75 -0.35
v 0.05 -0.75 -0.55
v 0.05 -0.75 -0.65
v 0.05 -0.75 -0.75
v 0.05 -0.65 -0.45
v 0.05 -0.65 -0.55
v 0.05 -0.65 -0.65
v 0.05 -0.65 -0.75
v 0.05 -0.55 -0.05
v 0.05 -0.55 -0.25
v 0.05 -0.55 -0.35
v 0.05 -0.55 -0.45
v 0.05 -0.45 0.55
v 0.05 -0.45 0.25
v 0.05 -0.45 0.05
v 0.05 -0.45 -0.05
v 0.05 -0.45 -0.25
v 0.05 -0.45 -0.35
v 0.05 -0.35 0.55
v 0.05 -0.35 0.35
v 0.05 -0.35 0.25
v 0.05 -0.35 0.05
v 0.05 -0.35 -0.05
v 0.05 -0.25 0.35
v 0.05 -0.25 0.25
v 0.05 -0.25 -0.05
v 0.05 -0.15 0.65
v 0.05 -0.15 0.55
v 0.05 -0.15 0.45
v 0.05 -0.15 0.35
v 0.05 -0.15 0.25
v 0.05 -0.15 0.15
v 0.05 -0.15 0.05
v 0.05 -0.15 -0.05
v 0.05 -0.05 0.65
v 0.05 -0.05 0.55
v 0.05 -0.05 0.45
v 0.05 -0.05 0.35
v 0.05 -0.05 0.25
v 0.05 -0.05 0.15
v 0.05 -0.05 0.05
v 0.05 -0.05 -0.05
v 0.15 -0.75 -0.55
v 0.15 -0.75 -0.65
v 0.15 -0.65 -0.45
v 0.15 -0.65 -0.55
v 0.15 -0.65 -0.65
v 0.15 -0.65 -0.75
v 0.15 -0.55 -0.35
v 0.15 -0.55 -0.45
v 0.15 -0.55 -0.55
v 0.15 -0.55 -0.65
v 0.15 -0.55 -0.75
v 0.15 -0.45 -0.25
v 0.15 -0.45 -0.35
v 0.15 -0.45 -0.45
v 0.15 -0.35 0.65
v 0.15 -0.35 0.35
v 0.15 -0.35 -0.05
v 0.15 -0.35 -0.25
v 0.15 -0.35 -0.35
v 0.15 -0.35 -0.45
v 0.15 -0.35 -0.55
v 0.15 -0.35 -0.65
v 0.15 -0.25 0.65
v 0.15 -0.25 0.35
v 0.15 -0.25 -0.05
v 0.15 -0.25 -0.15
v 0.15 -0.25 -0.35
v 0.15 -0.25 -0.45
v 0.15 -0.25 -0.55
v 0.15 -0.15 0.65
v 0.15 -0.15 0.55
v 0.15 -0.15 0.45
v 0.15 -0.15 0.35
v 0.15 -0.15 0.25
v 0.15 -0.15 0.15
v 0.15 -0.15 0.05
v 0.15 -0.15 -0.05
v 0.15 -0.15 -0.15
v 0.15 -0.15 -0.25
v 0.15 -0.15 -0.35
v 0.15 -0.15 -0.45
v 0.15 -0.05 0.55
v 0.15 -0.05 0.45
v 0.15 -0.05 0.35
v 0.15 -0.05 0.25
v 0.15 -0.05 0.15
v 0.15 -0.05 0.05
v 0.15 -0.05 -0.05
v 0.15 -0.05 -0.25
v 0.15 0.05 -0.25
v 0.15 0.05 -0.35
v -0.15 -0.35 0.65
v -0.15 -0.25 0.65
v -0.15 -0.15 0.65
v -0.05 -0.25 0.65
v -0.05 -0.15 0.65
v -0.05 -0.05 0.65
v 0.05 -0.25 0.65
v 0.05 -0.15 0.65
v 0.05 -0.05 0.65
v 0.15 -0.35 0.65
v 0.15 -0.25 0.65
v 0.15 -0.15 0.65
v -0.15 -0.15 0.55
v -0.15 -0.05 0.55
v -0.05 -0.45 0.55
v -0.05 -0.35 0.55
v -0.05 -0.25 0.55
v -0.05 -0.15 0.55
v -0.05 -0.05 0.55
v 0.05 -0.45 0.55
v 0.05 -0.35 0.55
v 0.05 -0.25 0.55
v 0.05 -0.15 0.55
v 0.05 -0.05 0.55
v 0.15 -0.15 0.55
v 0.15 -0.05 0.55
v -0.15 -0.15 0.35
v -0.15 -0.05 0.35
v -0.05 -0.35 0.35
v -0.05 -0.25 0.35
v -0.05 -0.15 0.35
v -0.05 -0.05 0.35
v 0.05 -0.35 0.35
v 0.05 -0.25 0.35
v 0.05 -0.15 0.35
v 0.05 -0.05 0.35
v 0.15 -0.15 0.35
v 0.15 -0.05 0.35
v -0.15 -0.15 0.15
v -0.15 -0.05 0.15
v -0.05 -0.15 0.15
v -0.05 -0.05 0.15
v 0.05 -0.15 0.15
v 0.05 -0.05 0.15
v 0.15 -0.15 0.15
v 0.15 -0.05 0.15
v -0.05 -0.45 0.05
v -0.05 -0.35 0.05
v 0.05 -0.45 0.05
v 0.05 -0.35 0.05
v -0.15 -0.35 -0.05
v -0.15 -0.25 -0.05
v -0.15 -0.15 -0.05
v -0.15 -0.05 -0.05
v -0.05 -0.55 -0.05
v -0.05 -0.45 -0.05
v -0.05 -0.35 -0.05
v -0.05 -0.25 -0.05
v -0.05 -0.15 -0.05
v -0.05 -0.05 -0.05
v 0.05 -0.55 -0.05
v 0.05 -0.45 -0.05
v 0.05 -0.35 -0.05
v 0.05 -0.25 -0.05
v 0.05 -0.15 -0.05
v 0.05 -0.05 -0.05
v 0.15 -0.35 -0.05
v 0.15 -0.25 -0.05
v 0.15 -0.15 -0.05
v 0.15 -0.05 -0.05
v -0.15 -0.45 -0.25
v -0.15 -0.35 -0.25
v -0.15 -0.05 -0.25
v -0.15 0.05 -0.25
v -0.05 -0.45 -0.25
v -0.05 -0.35 -0.25
v -0.05 -0.15 -0.25
v -0.05 -0.05 -0.25
v -0.05 0.05 -0.25
v 0.05 -0.45 -0.25
v 0.05 -0.35 -0.25
v 0.05 -0.15 -0.25
v 0.05 -0.05 -0.25
v 0.05 0.05 -0.25
v 0.15 -0.45 -0.25
v 0.15 -0.35 -0.25
v 0.15 -0.05 -0.25
v 0.15 0.05 -0.25
v -0.15 -0.55 -0.35
v -0.15 -0.45 -0.35
v -0.05 -0.75 -0.35
v -0.05 -0.55 -0.35
v -0.05 -0.45 -0.35
v 0.05 -0.75 -0.35
v 0.05 -0.55 -0.35
v 0.05 -0.45 -0.35
v 0.15 -0.55 -0.35
v 0.15 -0.45 -0.35
v -0.15 -0.65 -0.45
v -0.15 -0.55 -0.45
v -0.05 -0.65 -0.45
v -0.05 -0.55 -0.45
v 0.05 -0.65 -0.45
v 0.05 -0.55 -0.45
v 0.15 -0.65 -0.45
v 0.15 -0.55 -0.45
v -0.15 -0.75 -0.55
v -0.15 -0.65 -0.55
v -0.05 -0.75 -0.55
v -0.05 -0.65 -0.55
v 0.05 -0.75 -0.55
v 0.05 -0.65 -0.55
v 0.15 -0.75 -0.55
v 0.15 -0.65 -0.55
v -0.05 -0.35 0.55
v -0.05 -0.25 0.55
v 0.05 -0.35 0.55
v 0.05 -0.25 0.55
v -0.15 -0.15 0.45
v -0.15 -0.05 0.45
v -0.05 -0.25 0.45
v -0.05 -0.15 0.45
v -0.05 -0.05 0.45
v 0.05 -0.25 0.45
v 0.05 -0.15 0.45
v 0.05 -0.05 0.45
v 0.15 -0.15 0.45
v 0.15 -0.05 0.45
v -0.15 -0.35 0.35
v -0.15 -0.25 0.35
v -0.05 -0.35 0.35
v -0.05 -0.25 0.35
v 0.05 -0.35 0.35
v 0.05 -0.25 0.35
v 0.15 -0.35 0.35
v 0.15 -0.25 0.35
v -0.15 -0.15 0.25
v -0.15 -0.05 0.25
v -0.05 -0.45 0.25
v -0.05 -0.35 0.25
v -0.05 -0.15 0.25
v -0.05 -0.05 0.25
v 0.05 -0.45 0.25
v 0.05 -0.35 0.25
v 0.05 -0.15 0.25
v 0.05 -0.05 0.25
v 0.15 -0.15 0.25
v 0.15 -0.05 0.25
v -0.15 -0.15 0.05
v -0.15 -0.05 0.05
v -0.05 -0.15 0.05
v -0.05 -0.05 0.05
v 0.05 -0.15 0.05
v 0.05 -0.05 0.05
v 0.15 -0.15 0.05
v 0.15 -0.05 0.05
v -0.05 -0.45 -0.05
v -0.05 -0.35 -0.05
v -0.05 -0.25 -0.05
v 0.05 -0.45 -0.05
v 0.05 -0.35 -0.05
v 0.05 -0.25 -0.05
v -0.15 -0.15 -0.35
v -0.15 0.05 -0.35
v -0.05 -0.05 -0.35
v -0.05 0.05 -0.35
v 0.05 -0.05 -0.35
v 0.05 0.05 -0.35
v 0.15 -0.15 -0.35
v 0.15 0.05 -0.35
v -0.15 -0.25 -0.45
v -0.15 -0.15 -0.45
v 0.15 -0.25 -0.45
v 0.15 -0.15 -0.45
v -0.15 -0.35 -0.55
v -0.15 -0.25 -0.55
v 0.15 -0.35 -0.55
v 0.15 -0.25 -0.55
v -0.15 -0.75 -0.65
v -0.15 -0.65 -0.65
v -0.15 -0.55 -0.65
v -0.15 -0.35 -0.65
v -0.05 -0.75 -0.65
v -0.05 -0.65 -0.65
v 0.05 -0.75 -0.65
v 0.05 -0.65 -0.65
v 0.15 -0.75 -0.65
v 0.15 -0.65 -0.65
v 0.15 -0.55 -0.65
v 0.15 -0.35 -0.65
v -0.15 -0.65 -0.75
v -0.15 -0.55 -0.75
v -0.05 -0.75 -0.75
v -0.05 -0.65 -0.75
v 0.05 -0.75 -0.75
v 0.05 -0.65 -0.75
v 0.15 -0.65 -0.75
v 0.15 -0.55 -0.75
v -0.05 -0.75 -0.35
v 0.05 -0.75 -0.35
v -0.15 -0.75 -0.55
v -0.05 -0.75 -0.55
v 0.05 -0.75 -0.55
v 0.15 -0.75 -0.55
v -0.15 -0.75 -0.65
v -0.05 -0.75 -0.65
v 0.05 -0.75 -0.65
v 0.15 -0.75 -0.65
v -0.05 -0.75 -0.75
v 0.05 -0.75 -0.75
v -0.15 -0.65 -0.45
v -0.05 -0.65 -0.45
v 0.05 -0.65 -0.45
v 0.15 -0.65 -0.45
v -0.15 -0.65 -0.55
v -0.05 -0.65 -0.55
v 0.05 -0.65 -0.55
v 0.15 -0.65 -0.55
v -0.15 -0.65 -0.65
v -0.05 -0.65 -0.65
v 0.05 -0.65 -0.65
v 0.15 -0.65 -0.65
v -0.15 -0.65 -0.75
v -0.05 -0.65 -0.75
v 0.05 -0.65 -0.75
v 0.15 -0.65 -0.75
v -0.05 -0.55 -0.05
v 0.05 -0.55 -0.05
v -0.05 -0.55 -0.25
v 0.05 -0.55 -0.25
v -0.15 -0.55 -0.35
v -0.05 -0.55 -0.35
v 0.05 -0.55 -0.35
v 0.15 -0.55 -0.35
v -0.15 -0.55 -0.45
v -0.05 -0.55 -0.45
v 0.05 -0.55 -0.45
v 0.15 -0.55 -0.45
v -0.05 -0.45 0.55
v 0.05 -0.45 0.55
v -0.05 -0.45 0.25
v 0.05 -0.45 0.25
v -0.05 -0.45 0.05
v 0.05 -0.45 0.05
v -0.05 -0.45 -0.05
v 0.05 -0.45 -0.05
v -0.15 -0.45 -0.25
v -0.05 -0.45 -0.25
v 0.05 -0.45 -0.25
v 0.15 -0.45 -0.25
v -0.15 -0.45 -0.35
v -0.05 -0.45 -0.35
v 0.05 -0.45 -0.35
v 0.15 -0.45 -0.35
v -0.15 -0.35 0.65
v 0.15 -0.35 0.65
v -0.05 -0.35 0.55
v 0.05 -0.35 0.55
v -0.15 -0.35 0.35
v -0.05 -0.35 0.35
v 0.05 -0.35 0.35
v 0.15 -0.35 0.35
v -0.05 -0.35 0.25
v 0.05 -0.35 0.25
v -0.05 -0.35 0.05
v 0.05 -0.35 0.05
v -0.15 -0.35 -0.05
v -0.05 -0.35 -0.05
v 0.05 -0.35 -0.05
v 0.15 -0.35 -0.05
v -0.15 -0.35 -0.25
v -0.05 -0.35 -0.25
v 0.05 -0.35 -0.25
v 0.15 -0.35 -0.25
v -0.05 -0.25 0.55
v 0.05 -0.25 0.55
v -0.05 -0.25 0.45
v 0.05 -0.25 0.45
v -0.15 -0.25 0.35
v -0.05 -0.25 0.35
v 0.05 -0.25 0.35
v 0.15 -0.25 0.35
v -0.05 -0.25 0.25
v 0.05 -0.25 0.25
v -0.15 -0.25 -0.05
v -0.05 -0.25 -0.05
v 0.05 -0.25 -0.05
v 0.15 -0.25 -0.05
v -0.05 -0.15 0.65
v 0.05 -0.15 0.65
v -0.05 -0.15 0.55
v 0.05 -0.15 0.55
v -0.05 -0.15 0.45
v 0.05 -0.15 0.45
v -0.05 -0.15 -0.05
v 0.05 -0.15 -0.05
v -0.05 -0.15 -0.15
v 0.05 -0.15 -0.15
v -0.05 -0.15 -0.25
v 0.05 -0.15 -0.25
v -0.15 -0.55 -0.65
v 0.15 -0.55 -0.65
v -0.15 -0.55 -0.75
v 0.15 -0.55 -0.75
v -0.05 -0.45 -0.05
v 0.05 -0.45 -0.05
v -0.05 -0.45 -0.25
v 0.05 -0.45 -0.25
v -0.05 -0.35 0.55
v 0.05 -0.35 0.55
v -0.05 -0.35 0.35
v 0.05 -0.35 0.35
v -0.15 -0.35 -0.55
v 0.15 -0.35 -0.55
v -0.15 -0.35 -0.65
v 0.15 -0.35 -0.65
v -0.05 -0.25 0.65
v 0.05 -0.25 0.65
v -0.05 -0.25 0.55
v 0.05 -0.25 0.55
v -0.05 -0.25 0.35
v 0.05 -0.25 0.35
v -0.05 -0.25 0.25
v 0.05 -0.25 0.25
v -0.05 -0.25 -0.05
v 0.05 -0.25 -0.05
v -0.15 -0.25 -0.45
v 0.15 -0.25 -0.45
v -0.15 -0.25 -0.55
v 0.15 -0.25 -0.55
v -0.15 -0.15 0.65
v -0.05 -0.15 0.65
v 0.05 -0.15 0.65
v 0.15 -0.15 0.65
v -0.15 -0.15 0.55
v -0.05 -0.15 0.55
v 0.05 -0.15 0.55
v 0.15 -0.15 0.55
v -0.15 -0.15 0.45
v -0.05 -0.15 0.45
v 0.05 -0.15 0.45
v 0.15 -0.15 0.45
v -0.15 -0.15 0.35
v -0.05 -0.15 0.35
v 0.05 -0.15 0.35
v 0.15 -0.15 0.35
v -0.15 -0.15 0.25
v -0.05 -0.15 0.25
v 0.05 -0.15 0.25
v 0.15 -0.15 0.25
v -0.15 -0.15 0.15
v -0.05 -0.15 0.15
v 0.05 -0.15 0.15
v 0.15 -0.15 0.15
v -0.15 -0.15 0.05
v -0.05 -0.15 0.05
v 0.05 -0.15 0.05
v 0.15 -0.15 0.05
v -0.15 -0.15 -0.05
v -0.05 -0.15 -0.05
v 0.05 -0.15 -0.05
v 0.15 -0.15 -0.05
v -0.15 -0.15 -0.35
v 0.15 -0.15 -0.35
v -0.15 -0.15 -0.45
v 0.15 -0.15 -0.45
v -0.05 -0.05 0.65
v 0.05 -0.05 0.65
v -0.15 -0.05 0.55
v -0.05 -0.05 0.55
v 0.05 -0.05 0.55
v 0.15 -0.05 0.55
v -0.15 -0.05 0.45
v -0.05 -0.05 0.45
v 0.05 -0.05 0.45
v 0.15 -0.05 0.45
v -0.15 -0.05 0.35
v -0.05 -0.05 0.35
v 0.05 -0.05 0.35
v 0.15 -0.05 0.35
v -0.15 -0.05 0.25
v -0.05 -0.05 0.25
v 0.05 -0.05 0.25
v 0.15 -0.05 0.25
v -0.15 -0.05 0.15
v -0.05 -0.05 0.15
v 0.05 -0.05 0.15
v 0.15 -0.05 0.15
v -0.15 -0.05 0.05
v -0.05 -0.05 0.05
v 0.05 -0.05 0.05
v 0.15 -0.05 0.05
v -0.15 -0.05 -0.05
v -0.05 -0.05 -0.05
v 0.05 -0.05 -0.05
v 0.15 -0.05 -0.05
v -0.15 -0.05 -0.25
v -0.05 -0.05 -0.25
v 0.05 -0.05 -0.25
v 0.15 -0.05 -0.25
v -0.05 -0.05 -0.35
v 0.05 -0.05 -0.35
v -0.15 0.05 -0.25
v -0.05 0.05 -0.25
v 0.05 0.05 -0.25
v 0.15 0.05 -0.25
v -0.15 0.05 -0.35
v -0.05 0.05 -0.35
v 0.05 0.05 -0.35
v 0.15 0.05 -0.35

# faces
f 4/2/1 2/2/1 1/2/1
f 5/2/1 2/2/1 4/2/1
f 8/2/1 4/2/1 3/2/1
f 9/1/1 5/1/1 4/1/1
f 9/2/1 4/2/1 8/2/1
f 10/2/1 6/2/1 5/2/1
f 10/1/1 5/1/1 9/1/1
f 11/2/1 6/2/1 10/2/1
f 13/2/1 8/2/1 7/2/1
f 14/1/1 9/1/1 8/1/1
f 14/2/1 8/2/1 13/2/1
f 18/2/1 13/2/1 12/2/1
f 19/1/1 14/1/1 13/1/1
f 19/2/1 13/2/1 18/2/1
f 20/1/1 9/1/1 14/1/1
f 20/1/1 14/1/1 19/1/1
f 21/2/1 10/2/1 9/2/1
f 21/1/1 9/1/1 20/1/1
f 22/2/1 10/2/1 21/2/1
f 23/4/1 16/4/1 15/4/1
f 24/4/1 16/4/1 23/4/1
f 25/2/1 18/2/1 17/2/1
f 26/2/1 18/2/1 25/2/1
f 27/1/1 20/1/1 19/1/1
f 27/1/1 19/1/1 18/1/1
f 28/2/1 21/2/1 20/2/1
f 28/1/1 20/1/1 27/1/1
f 29/2/1 21/2/1 28/2/1
f 30/2/1 24/2/1 23/2/1
f 30/2/1 25/2/1 24/2/1
f 31/2/1 25/2/1 30/2/1
f 32/2/1 25/2/1 31/2/1
f 33/2/1 25/2/1 32/2/1
f 34/2/1 25/2/1 33/2/1
f 35/2/1 25/2/1 34/2/1
f 36/2/1 25/2/1 35/2/1
f 37/3/1 26/3/1 25/3/1
f 37/2/1 25/2/1 36/2/1
f 38/2/1 18/2/1 26/2/1
f 38/3/1 26/3/1 37/3/1
f 39/1/1 27/1/1 18/1/1
f 39/2/1 18/2/1 38/2/1
f 40/2/1 28/2/1 27/2/1
f 40/1/1 27/1/1 39/1/1
f 41/2/1 28/2/1 40/2/1
f 42/3/1 32/3/1 31/3/1
f 43/3/1 32/3/1 42/3/1
f 44/3/1 34/3/1 33/3/1
f 45/3/1 34/3/1 44/3/1
f 46/3/1 36/3/1 35/3/1
f 47/3/1 36/3/1 46/3/1
f 48/3/1 38/3/1 37/3/1
f 48/3/1 39/3/1 38/3/1
f 49/2/1 40/2/1 39/2/1
f 49/3/1 39/3/1 48/3/1
f 50/2/1 40/2/1 49/2/1
f 51/2/1 40/2/1 50/2/1
f 56/2/1 53/2/1 52/2/1
f 57/2/1 53/2/1 56/2/1
f 58/2/1 55/2/1 54/2/1
f 59/2/1 55/2/1 58/2/1
f 62/2/1 56/2/1 52/2/1
f 63/2/1 56/2/1 62/2/1
f 67/1/1 61/1/1 60/1/1
f 68/2/1 62/2/1 61/2/1
f 68/1/1 61/1/1 67/1/1
f 69/2/1 62/2/1 68/2/1
f 70/4/1 65/4/1 64/4/1
f 71/4/1 65/4/1 70/4/1
f 72/4/1 65/4/1 71/4/1
f 73/1/1 67/1/1 66/1/1
f 74/1/1 67/1/1 73/1/1
f 75/4/1 72/4/1 71/4/1
f 76/1/1 74/1/1 73/1/1
f 76/4/1 72/4/1 75/4/1
f 76/1/1 73/1/1 72/1/1
f 77/1/1 74/1/1 76/1/1
f 86/2/1 79/2/1 78/2/1
f 87/2/1 79/2/1 86/2/1
f 88/2/1 81/2/1 80/2/1
f 89/2/1 81/2/1 88/2/1
f 90/2/1 83/2/1 82/2/1
f 91/2/1 83/2/1 90/2/1
f 92/2/1 85/2/1 84/2/1
f 93/2/1 85/2/1 92/2/1
f 99/4/1 95/4/1 94/4/1
f 100/4/1 95/4/1 99/4/1
f 101/4/1 95/4/1 100/4/1
f 103/2/1 97/2/1 96/2/1
f 104/2/1 97/2/1 103/2/1
f 105/2/1 99/2/1 98/2/1
f 106/2/1 99/2/1 105/2/1
f 107/2/1 102/2/1 101/2/1
f 107/2/1 101/2/1 100/2/1
f 107/2/1 103/2/1 102/2/1
f 108/3/1 104/3/1 103/3/1
f 108/2/1 103/2/1 107/2/1
f 109/2/1 97/2/1 104/2/1
f 109/3/1 104/3/1 108/3/1
f 110/2/1 97/2/1 109/2/1
f 113/2/1 112/2/1 111/2/1
f 114/2/1 112/2/1 113/2/1
f 115/4/2 116/4/2 120/4/2
f 120/4/2 116/4/2 121/4/2
f 121/4/2 116/4/2 122/4/2
f 117/2/2 118/2/2 124/2/2
f 124/2/2 118/2/2 125/2/2
f 119/2/2 120/2/2 126/2/2
f 126/2/2 120/2/2 127/2/2
f 122/2/2 123/2/2 128/2/2
f 121/2/2 122/2/2 128/2/2
f 123/2/2 124/2/2 128/2/2
f 124/3/2 125/3/2 129/3/2
f 128/2/2 124/2/2 129/2/2
f 125/2/2 118/2/2 130/2/2
f 129/3/2 125/3/2 130/3/2
f 130/2/2 118/2/2 131/2/2
f 132/2/2 133/2/2 134/2/2
f 134/2/2 133/2/2 135/2/2
f 136/2/2 137/2/2 140/2/2
f 140/2/2 137/2/2 141/2/2
f 138/2/2 139/2/2 142/2/2
f 142/2/2 139/2/2 143/2/2
f 136/2/2 140/2/2 146/2/2
f 146/2/2 140/2/2 147/2/2
f 144/1/2 145/1/2 151/1/2
f 145/2/2 146/2/2 152/2/2
f 151/1/2 145/1/2 152/1/2
f 152/2/2 146/2/2 153/2/2
f 148/4/2 149/4/2 154/4/2
f 154/4/2 149/4/2 155/4/2
f 155/4/2 149/4/2 156/4/2
f 150/1/2 151/1/2 157/1/2
f 157/1/2 151/1/2 158/1/2
f 155/4/2 156/4/2 159/4/2
f 157/1/2 158/1/2 160/1/2
f 159/4/2 156/4/2 160/4/2
f 156/1/2 157/1/2 160/1/2
f 160/1/2 158/1/2 161/1/2
f 162/2/2 163/2/2 170/2/2
f 170/2/2 163/2/2 171/2/2
f 164/2/2 165/2/2 172/2/2
f 172/2/2 165/2/2 173/2/2
f 166/2/2 167/2/2 174/2/2
f 174/2/2 167/2/2 175/2/2
f 168/2/2 169/2/2 176/2/2
f 176/2/2 169/2/2 177/2/2
f 178/2/2 179/2/2 181/2/2
f 181/2/2 179/2/2 182/2/2
f 180/2/2 181/2/2 185/2/2
f 181/1/2 182/1/2 186/1/2
f 185/2/2 181/2/2 186/2/2
f 182/2/2 183/2/2 187/2/2
f 186/1/2 182/1/2 187/1/2
f 187/2/2 183/2/2 188/2/2
f 184/2/2 185/2/2 190/2/2
f 185/1/2 186/1/2 191/1/2
f 190/2/2 185/2/2 191/2/2
f 189/2/2 190/2/2 195/2/2
f 190/1/2 191/1/2 196/1/2
f 195/2/2 190/2/2 196/2/2
f 191/1/2 186/1/2 197/1/2
f 196/1/2 191/1/2 197/1/2
f 186/2/2 187/2/2 198/2/2
f 197/1/2 186/1/2 198/1/2
f 198/2/2 187/2/2 199/2/2
f 192/4/2 193/4/2 200/4/2
f 200/4/2 193/4/2 201/4/2
f 194/2/2 195/2/2 202/2/2
f 202/2/2 195/2/2 203/2/2
f 196/1/2 197/1/2 204/1/2
f 195/1/2 196/1/2 204/1/2
f 197/2/2 198/2/2 205/2/2
f 204/1/2 197/1/2 205/1/2
f 205/2/2 198/2/2 206/2/2
f 200/2/2 201/2/2 207/2/2
f 201/2/2 202/2/2 207/2/2
f 207/2/2 202/2/2 208/2/2
f 208/2/2 202/2/2 209/2/2
f 209/2/2 202/2/2 210/2/2
f 210/2/2 202/2/2 211/2/2
f 211/2/2 202/2/2 212/2/2
f 212/2/2 202/2/2 213/2/2
f 202/3/2 203/3/2 214/3/2
f 213/2/2 202/2/2 214/2/2
f 203/2/2 195/2/2 215/2/2
f 214/3/2 203/3/2 215/3/2
f 195/1/2 204/1/2 216/1/2
f 215/2/2 195/2/2 216/2/2
f 204/2/2 205/2/2 217/2/2
f 216/1/2 204/1/2 217/1/2
f 217/2/2 205/2/2 218/2/2
f 208/3/2 209/3/2 219/3/2
f 219/3/2 209/3/2 220/3/2
f 210/3/2 211/3/2 221/3/2
f 221/3/2 211/3/2 222/3/2
f 212/3/2 213/3/2 223/3/2
f 223/3/2 213/3/2 224/3/2
f 214/3/2 215/3/2 225/3/2
f 215/3/2 216/3/2 225/3/2
f 216/2/2 217/2/2 226/2/2
f 225/3/2 216/3/2 226/3/2
f 226/2/2 217/2/2 227/2/2
f 227/2/2 217/2/2 228/2/2
f 232/4/3 230/4/3 229/4/3
f 232/2/3 231/2/3 230/2/3
f 233/2/3 231/2/3 232/2/3
f 235/4/3 232/4/3 229/4/3
f 236/2/3 234/2/3 233/2/3
f 237/2/3 234/2/3 236/2/3
f 238/4/3 235/4/3 229/4/3
f 239/2/3 236/2/3 235/2/3
f 239/4/3 235/4/3 238/4/3
f 240/2/3 236/2/3 239/2/3
f 246/3/3 242/3/3 241/3/3
f 247/3/3 242/3/3 246/3/3
f 248/4/3 244/4/3 243/4/3
f 249/4/3 244/4/3 248/4/3
f 250/5/3 246/5/3 245/5/3
f 251/5/3 246/5/3 250/5/3
f 253/3/3 252/3/3 251/3/3
f 254/3/3 252/3/3 253/3/3
f 259/3/3 256/3/3 255/3/3
f 260/3/3 256/3/3 259/3/3
f 261/4/3 258/4/3 257/4/3
f 262/4/3 258/4/3 261/4/3
f 265/3/3 264/3/3 263/3/3
f 266/3/3 264/3/3 265/3/3
f 269/3/3 268/3/3 267/3/3
f 270/3/3 268/3/3 269/3/3
f 273/3/3 272/3/3 271/3/3
f 274/3/3 272/3/3 273/3/3
f 277/1/3 276/1/3 275/1/3
f 278/1/3 276/1/3 277/1/3
f 285/2/3 280/2/3 279/2/3
f 286/2/3 280/2/3 285/2/3
f 287/3/3 282/3/3 281/3/3
f 288/3/3 282/3/3 287/3/3
f 289/1/3 284/1/3 283/1/3
f 290/1/3 284/1/3 289/1/3
f 295/2/3 292/2/3 291/2/3
f 296/2/3 292/2/3 295/2/3
f 297/3/3 294/3/3 293/3/3
f 298/3/3 294/3/3 297/3/3
f 303/2/3 300/2/3 299/2/3
f 304/2/3 300/2/3 303/2/3
f 306/2/3 302/2/3 301/2/3
f 307/2/3 302/2/3 306/2/3
f 308/2/3 305/2/3 304/2/3
f 308/2/3 304/2/3 303/2/3
f 309/2/3 305/2/3 308/2/3
f 310/2/3 305/2/3 309/2/3
f 313/2/3 309/2/3 308/2/3
f 314/2/3 309/2/3 313/2/3
f 315/2/3 312/2/3 311/2/3
f 316/2/3 312/2/3 315/2/3
f 320/2/3 318/2/3 317/2/3
f 321/2/3 318/2/3 320/2/3
f 322/2/3 320/2/3 319/2/3
f 323/2/3 320/2/3 322/2/3
f 325/2/3 324/2/3 323/2/3
f 326/2/3 324/2/3 325/2/3
f 329/2/3 328/2/3 327/2/3
f 330/2/3 328/2/3 329/2/3
f 333/2/3 332/2/3 331/2/3
f 334/2/3 332/2/3 333/2/3
f 337/2/3 336/2/3 335/2/3
f 338/2/3 336/2/3 337/2/3
f 341/2/3 340/2/3 339/2/3
f 342/2/3 340/2/3 341/2/3
f 343/4/4 344/4/4 345/4/4
f 345/4/4 344/4/4 346/4/4
f 347/3/4 348/3/4 350/3/4
f 350/3/4 348/3/4 351/3/4
f 349/5/4 350/5/4 352/5/4
f 352/5/4 350/5/4 353/5/4
f 353/3/4 354/3/4 355/3/4
f 355/3/4 354/3/4 356/3/4
f 357/4/4 358/4/4 359/4/4
f 359/4/4 358/4/4 360/4/4
f 361/4/4 362/4/4 363/4/4
f 363/4/4 362/4/4 364/4/4
f 365/3/4 366/3/4 369/3/4
f 369/3/4 366/3/4 370/3/4
f 367/4/4 368/4/4 371/4/4
f 371/4/4 368/4/4 372/4/4
f 373/3/4 374/3/4 375/3/4
f 375/3/4 374/3/4 376/3/4
f 377/3/4 378/3/4 379/3/4
f 379/3/4 378/3/4 380/3/4
f 381/3/4 382/3/4 383/3/4
f 383/3/4 382/3/4 384/3/4
f 385/1/4 386/1/4 388/1/4
f 386/1/4 387/1/4 388/1/4
f 388/1/4 387/1/4 389/1/4
f 389/1/4 387/1/4 390/1/4
f 391/2/4 392/2/4 393/2/4
f 393/2/4 392/2/4 394/2/4
f 391/2/4 393/2/4 395/2/4
f 391/2/4 395/2/4 397/2/4
f 395/2/4 396/2/4 397/2/4
f 397/2/4 396/2/4 398/2/4
f 399/2/4 400/2/4 401/2/4
f 401/2/4 400/2/4 402/2/4
f 403/2/4 404/2/4 405/2/4
f 405/2/4 404/2/4 406/2/4
f 407/2/4 408/2/4 411/2/4
f 411/2/4 408/2/4 412/2/4
f 413/2/4 414/2/4 415/2/4
f 415/2/4 414/2/4 416/2/4
f 409/2/4 410/2/4 417/2/4
f 417/2/4 410/2/4 418/2/4
f 419/2/4 420/2/4 422/2/4
f 421/2/4 422/2/4 423/2/4
f 422/2/4 420/2/4 424/2/4
f 423/2/4 422/2/4 424/2/4
f 424/2/4 420/2/4 425/2/4
f 425/2/4 420/2/4 426/2/4
f 430/2/5 428/2/5 427/2/5
f 431/2/5 428/2/5 430/2/5
f 433/2/5 430/2/5 429/2/5
f 433/2/5 432/2/5 431/2/5
f 433/2/5 431/2/5 430/2/5
f 434/2/5 432/2/5 433/2/5
f 435/2/5 432/2/5 434/2/5
f 436/2/5 432/2/5 435/2/5
f 437/2/5 435/2/5 434/2/5
f 438/2/5 435/2/5 437/2/5
f 443/2/5 440/2/5 439/2/5
f 444/2/5 440/2/5 443/2/5
f 445/2/5 442/2/5 441/2/5
f 446/2/5 442/2/5 445/2/5
f 451/2/5 448/2/5 447/2/5
f 452/2/5 448/2/5 451/2/5
f 453/2/5 450/2/5 449/2/5
f 454/2/5 450/2/5 453/2/5
f 457/1/5 456/1/5 455/1/5
f 458/1/5 456/1/5 457/1/5
f 460/2/5 458/2/5 457/2/5
f 461/2/5 458/2/5 460/2/5
f 463/2/5 460/2/5 459/2/5
f 464/2/5 460/2/5 463/2/5
f 465/2/5 462/2/5 461/2/5
f 466/2/5 462/2/5 465/2/5
f 469/4/5 468/4/5 467/4/5
f 470/4/5 468/4/5 469/4/5
f 473/1/5 472/1/5 471/1/5
f 474/1/5 472/1/5 473/1/5
f 479/2/5 476/2/5 475/2/5
f 480/2/5 476/2/5 479/2/5
f 481/2/5 478/2/5 477/2/5
f 482/2/5 478/2/5 481/2/5
f 485/4/5 484/4/5 483/4/5
f 486/4/5 484/4/5 485/4/5
f 487/4/5 485/4/5 483/4/5
f 488/4/5 485/4/5 487/4/5
f 489/4/5 484/4/5 486/4/5
f 490/4/5 484/4/5 489/4/5
f 493/1/5 492/1/5 491/1/5
f 494/1/5 492/1/5 493/1/5
f 499/2/5 496/2/5 495/2/5
f 500/2/5 496/2/5 499/2/5
f 501/2/5 498/2/5 497/2/5
f 502/2/5 498/2/5 501/2/5
f 505/5/5 504/5/5 503/5/5
f 506/5/5 504/5/5 505/5/5
f 511/2/5 508/2/5 507/2/5
f 512/2/5 510/2/5 509/2/5
f 513/2/5 511/2/5 507/2/5
f 514/2/5 511/2/5 513/2/5
f 515/2/5 510/2/5 512/2/5
f 516/2/5 510/2/5 515/2/5
f 519/2/5 518/2/5 517/2/5
f 520/2/5 518/2/5 519/2/5
f 523/2/5 522/2/5 521/2/5
f 524/2/5 522/2/5 523/2/5
f 525/2/5 524/2/5 523/2/5
f 526/2/5 524/2/5 525/2/5
f 527/2/5 526/2/5 525/2/5
f 528/2/5 526/2/5 527/2/5
f 529/2/6 530/2/6 531/2/6
f 531/2/6 530/2/6 532/2/6
f 533/1/6 534/1/6 535/1/6
f 535/1/6 534/1/6 536/1/6
f 537/4/6 538/4/6 539/4/6
f 539/4/6 538/4/6 540/4/6
f 541/2/6 542/2/6 543/2/6
f 543/2/6 542/2/6 544/2/6
f 545/4/6 546/4/6 547/4/6
f 547/4/6 546/4/6 548/4/6
f 549/4/6 550/4/6 551/4/6
f 551/4/6 550/4/6 552/4/6
f 551/1/6 552/1/6 553/1/6
f 553/1/6 552/1/6 554/1/6
f 555/2/6 556/2/6 557/2/6
f 557/2/6 556/2/6 558/2/6
f 559/2/6 560/2/6 563/2/6
f 563/2/6 560/2/6 564/2/6
f 561/2/6 562/2/6 565/2/6
f 565/2/6 562/2/6 566/2/6
f 567/2/6 568/2/6 571/2/6
f 571/2/6 568/2/6 572/2/6
f 569/2/6 570/2/6 573/2/6
f 573/2/6 570/2/6 574/2/6
f 575/2/6 576/2/6 579/2/6
f 579/2/6 576/2/6 580/2/6
f 577/2/6 578/2/6 581/2/6
f 581/2/6 578/2/6 582/2/6
f 583/2/6 584/2/6 587/2/6
f 587/2/6 584/2/6 588/2/6
f 585/2/6 586/2/6 589/2/6
f 589/2/6 586/2/6 590/2/6
f 591/2/6 592/2/6 593/2/6
f 593/2/6 592/2/6 594/2/6
f 595/2/6 596/2/6 598/2/6
f 598/2/6 596/2/6 599/2/6
f 597/3/6 598/3/6 601/3/6
f 598/2/6 599/2/6 602/2/6
f 601/3/6 598/3/6 602/3/6
f 599/3/6 600/3/6 603/3/6
f 602/2/6 599/2/6 603/2/6
f 603/3/6 600/3/6 604/3/6
f 602/2/6 603/2/6 606/2/6
f 606/2/6 603/2/6 607/2/6
f 605/3/6 606/3/6 609/3/6
f 606/2/6 607/2/6 610/2/6
f 609/3/6 606/3/6 610/3/6
f 607/3/6 608/3/6 611/3/6
f 610/2/6 607/2/6 611/2/6
f 611/3/6 608/3/6 612/3/6
f 610/2/6 611/2/6 614/2/6
f 614/2/6 611/2/6 615/2/6
f 613/3/6 614/3/6 617/3/6
f 614/2/6 615/2/6 618/2/6
f 617/3/6 614/3/6 618/3/6
f 615/3/6 616/3/6 619/3/6
f 618/2/6 615/2/6 619/2/6
f 619/3/6 616/3/6 620/3/6
f 618/2/6 619/2/6 622/2/6
f 622/2/6 619/2/6 623/2/6
f 621/3/6 622/3/6 625/3/6
f 622/2/6 623/2/6 626/2/6
f 625/3/6 622/3/6 626/3/6
f 623/3/6 624/3/6 627/3/6
f 626/2/6 623/2/6 627/2/6
f 627/3/6 624/3/6 628/3/6
f 626/2/6 627/2/6 629/2/6
f 629/2/6 627/2/6 630/2/6
f 631/2/6 632/2/6 635/2/6
f 635/2/6 632/2/6 636/2/6
f 633/2/6 634/2/6 637/2/6
f 637/2/6 634/2/6 638/2/6
